<svg xmlns="http://www.w3.org/2000/svg" width="16" height="16" viewBox="0 0 16 16">
    <g data-name="그룹 3453">
        <path data-name="사각형 691" style="fill:none" d="M0 0h16v16H0z"/>
        <path data-name="패스 12" d="M.5 9.9a.5.5 0 0 1 .5.5v2.5a1 1 0 0 0 1 1h12a1 1 0 0 0 1-1v-2.5a.5.5 0 0 1 1 0v2.5a2 2 0 0 1-2 2H2a2 2 0 0 1-2-2v-2.5a.5.5 0 0 1 .5-.5z" style="fill:#f63"/>
        <path data-name="패스 13" d="M7.646 11.854a.5.5 0 0 0 .708 0l3-3a.5.5 0 1 0-.708-.708L8.5 10.293V1.5a.5.5 0 1 0-1 0v8.793L5.354 8.146a.5.5 0 1 0-.708.708z" style="fill:#f63"/>
    </g>
</svg>
