<svg xmlns="http://www.w3.org/2000/svg" width="32" height="32" viewBox="0 0 32 32">
    <g data-name="그룹 4064">
        <path data-name="사각형 963" style="fill:none" d="M0 0h32v32H0z"/>
        <path data-name="패스 21565" d="M4.983 18.784a.735.735 0 0 1 .735.735v3.673a1.469 1.469 0 0 0 1.469 1.469h17.627a1.469 1.469 0 0 0 1.469-1.469v-3.673a.735.735 0 0 1 1.469 0v3.673a2.938 2.938 0 0 1-2.938 2.938H7.186a2.938 2.938 0 0 1-2.938-2.939v-3.672a.735.735 0 0 1 .735-.735z"/>
        <path data-name="패스 21566" d="M15.48 21.655a.735.735 0 0 0 1.04 0l4.407-4.407a.735.735 0 1 0-1.04-1.04l-3.153 3.154V6.445a.735.735 0 1 0-1.469 0v12.917l-3.152-3.152a.735.735 0 1 0-1.04 1.04z"/>
    </g>
</svg>
