<svg xmlns="http://www.w3.org/2000/svg" width="32" height="32" viewBox="0 0 32 32">
    <g data-name="그룹 4212">
        <path data-name="사각형 982" style="fill:none" d="M0 0h32v32H0z"/>
        <path d="M4.409 4.651A4.375 4.375 0 0 1 8.434 2h11.134a4.376 4.376 0 0 1 4.021 2.651l1.386 3.234a1.414 1.414 0 0 0 .665.707 3.164 3.164 0 0 1 1.689 2.208l.586 2.938A4.267 4.267 0 0 1 28 14.6v.723a4.349 4.349 0 0 1-1.75 3.495v3.311a.875.875 0 0 1-.875.875h-3.5a.875.875 0 0 1-.875-.879v-2.342c-2.261.084-4.8.154-7 .154s-4.739-.07-7-.154v2.342a.875.875 0 0 1-.874.875h-3.5a.875.875 0 0 1-.875-.875v-3.311A4.349 4.349 0 0 1 0 15.319V14.6a4.375 4.375 0 0 1 .086-.858L.673 10.8A3.163 3.163 0 0 1 2.36 8.592a1.412 1.412 0 0 0 .667-.707l1.386-3.234zM5.249 16A1.75 1.75 0 1 0 3.5 14.25 1.75 1.75 0 0 0 5.249 16zm17.5 0A1.75 1.75 0 1 0 21 14.25 1.75 1.75 0 0 0 22.749 16zM10.5 12.5a1.75 1.75 0 1 0 0 3.5h7a1.75 1.75 0 1 0 0-3.5zM5.085 7.581a.893.893 0 0 0 .87 1.279c1.592-.128 5.863-.3 8.045-.3s6.454.17 8.045.3a.892.892 0 0 0 .87-1.279l-1.674-3.348a.875.875 0 0 0-.782-.483H7.54a.875.875 0 0 0-.782.483l-1.673 3.35z" transform="translate(2.249 4)" style="fill:#f63"/>
    </g>
</svg>
