<svg xmlns="http://www.w3.org/2000/svg" width="32" height="32" viewBox="0 0 32 32">
    <g data-name="그룹 4264">
        <path data-name="사각형 982" style="fill:none" d="M0 0h32v32H0z"/>
        <path d="M10.471 1.875A2.971 2.971 0 0 1 13.032 0a2.973 2.973 0 0 1 2.561 1.875 7.082 7.082 0 0 1 .7 3.012V10.9l8.422 4.211a2.443 2.443 0 0 1 1.349 2.189v2.251a.814.814 0 0 1-.948.8l-8.971-1.5-.611 3.67 2.147 2.147a.814.814 0 0 1-.577 1.391H8.959a.814.814 0 0 1-.577-1.391l2.149-2.147-.612-3.67-8.971 1.5a.814.814 0 0 1-.948-.8V17.3a2.443 2.443 0 0 1 1.352-2.19l8.422-4.21V4.887a7.106 7.106 0 0 1 .697-3.012z" transform="rotate(180 14.516 14.516)" style="fill:#f63"/>
    </g>
</svg>
