<svg xmlns="http://www.w3.org/2000/svg" width="24" height="24" viewBox="0 0 24 24">
    <g data-name="그룹 4114">
        <g data-name="geo-alt (1)">
            <path data-name="패스 21575" d="M13.86 10.43a22.43 22.43 0 0 1-2.287 3.582A36.741 36.741 0 0 1 9 17.01a36.728 36.728 0 0 1-2.574-3 22.43 22.43 0 0 1-2.286-3.58A8.072 8.072 0 0 1 3.167 7a5.833 5.833 0 1 1 11.666 0 8.089 8.089 0 0 1-.973 3.43zM9 18.667S16 12.033 16 7A7 7 0 1 0 2 7c0 5.033 7 11.667 7 11.667z" transform="translate(3.25 2.667)" style="fill:#f63"/>
            <path data-name="패스 21576" d="M8 8a2 2 0 1 1 2-2 2 2 0 0 1-2 2zm0 1a3 3 0 1 0-3-3 3 3 0 0 0 3 3z" transform="translate(4.25 3.467)" style="fill:#f63"/>
        </g>
        <path data-name="사각형 977" style="fill:none" d="M0 0h24v24H0z"/>
    </g>
</svg>
