<svg xmlns="http://www.w3.org/2000/svg" width="20" height="20" viewBox="0 0 20 20">
  <g id="그룹_4079" data-name="그룹 4079" transform="translate(4492)">
    <rect id="사각형_967" data-name="사각형 967" width="20" height="20" transform="translate(-4492)" fill="none"/>
    <g id="arrow-counterclockwise" transform="translate(-4488.148 2.973)">
      <path id="패스_21568" data-name="패스 21568" d="M8.148,3.025A5.123,5.123,0,1,1,3.49,6.011a.512.512,0,0,0-.93-.427A6.148,6.148,0,1,0,8.148,2Z" transform="translate(-1.999 -0.242)" fill="#f63" fill-rule="evenodd"/>
      <path id="패스_21569" data-name="패스 21569" d="M8.071,4.569V.54a.256.256,0,0,0-.42-.2L5.232,2.358a.256.256,0,0,0,0,.393L7.65,4.766a.256.256,0,0,0,.42-.2Z" transform="translate(-1.921 -0.284)" fill="#f63"/>
    </g>
  </g>
</svg>
