<svg xmlns="http://www.w3.org/2000/svg" width="20" height="20" viewBox="0 0 20 20">
    <g data-name="그룹 4308">
        <path data-name="사각형 1000" style="fill:none" d="M0 0h20v20H0z"/>
        <path d="M6.692 6.273 9.422.865a.642.642 0 0 1 1.159 0l2.73 5.408 6.122.87a.671.671 0 0 1 .567.632.685.685 0 0 1-.212.556l-4.4 4.195 1.037 5.912a.663.663 0 0 1-.932.74L10 16.358l-5.486 2.82a.65.65 0 0 1-.182.062.673.673 0 0 1-.75-.8l1.037-5.912L.216 8.331A.687.687 0 0 1 0 7.827a.725.725 0 0 1 .107-.377.641.641 0 0 1 .463-.307zM10 14.908a.625.625 0 0 1 .29.07l4.61 2.367-.871-4.945a.706.706 0 0 1 .2-.631l3.634-3.462-5.063-.721a.656.656 0 0 1-.491-.36L10 2.654v12.253z" transform="translate(-.001 .5)" style="fill:#f63"/>
    </g>
</svg>
