<svg xmlns="http://www.w3.org/2000/svg" width="20" height="20" viewBox="0 0 20 20">
    <g data-name="그룹 4309">
        <path data-name="사각형 1000" style="fill:none" d="M0 0h20v20H0z"/>
        <path d="M3.582 18.437a.663.663 0 0 0 .932.741L10 16.359l5.486 2.82a.663.663 0 0 0 .932-.74l-1.037-5.912 4.4-4.195a.694.694 0 0 0-.352-1.187l-6.122-.87-2.726-5.41a.641.641 0 0 0-1.159 0l-2.73 5.41-6.122.87a.7.7 0 0 0-.354 1.188l4.4 4.195-1.034 5.912zm6.131-3.459-4.607 2.368.867-4.946a.706.706 0 0 0-.2-.631L2.137 8.306l5.063-.72a.656.656 0 0 0 .491-.36L10 2.654l2.309 4.572a.656.656 0 0 0 .491.36l5.065.719-3.632 3.462a.706.706 0 0 0-.2.632l.867 4.946-4.607-2.367a.629.629 0 0 0-.576 0z" transform="translate(-.001 .501)" style="fill:#f63"/>
    </g>
</svg>
