<svg xmlns="http://www.w3.org/2000/svg" width="20" height="20" viewBox="0 0 20 20">
    <g data-name="그룹 4305">
        <path d="M4.515 19.179a.663.663 0 0 1-.932-.74l1.037-5.913L.216 8.331A.7.7 0 0 1 .57 7.144l6.122-.87L9.422.865a.642.642 0 0 1 1.159 0l2.73 5.409 6.122.87a.7.7 0 0 1 .352 1.187l-4.4 4.195 1.037 5.912a.663.663 0 0 1-.932.74L10 16.359l-5.486 2.82z" transform="translate(-.001 .5)" style="fill:#f63"/>
        <path data-name="사각형 1000" style="fill:none" d="M0 0h20v20H0z"/>
    </g>
</svg>
