<svg xmlns="http://www.w3.org/2000/svg" width="44" height="44" viewBox="0 0 44 44">
    <g data-name="그룹 4311">
        <path data-name="사각형 1001" style="fill:none" d="M0 0h44v44H0z"/>
        <path data-name="패스 21573" d="M20.068 37.628a17.56 17.56 0 1 1 17.56-17.56 17.56 17.56 0 0 1-17.56 17.56zm0 2.509A20.068 20.068 0 1 0 0 20.068a20.068 20.068 0 0 0 20.068 20.068z" style="fill:#f4f4f4" transform="translate(2.432 2)"/>
        <path data-name="패스 21574" d="M6.68 5.139a1.254 1.254 0 0 1 1.3.1l8.78 6.271a1.254 1.254 0 0 1 0 2.042l-8.78 6.271A1.254 1.254 0 0 1 6 18.8V6.255a1.254 1.254 0 0 1 .68-1.116z" transform="translate(11.483 9.542)" style="fill:#f4f4f4"/>
    </g>
</svg>
