<svg id="img_meagre7" xmlns="http://www.w3.org/2000/svg" width="150" height="150" viewBox="0 0 150 150">
  <g id="그룹_3532" data-name="그룹 3532" transform="translate(-676 -459)">
    <rect id="사각형_694" data-name="사각형 694" width="150" height="150" transform="translate(676 459)" fill="none"/>
    <g id="그룹_3572" data-name="그룹 3572" transform="translate(-4 0.419)">
      <g id="그룹_3571" data-name="그룹 3571" transform="translate(703.999 511.581)">
        <path id="패스_507" data-name="패스 507" d="M77.417-364.106c-6.187,5.045-15.113,9.262-25.456,11.524-14.341,3.136-27.776,1.72-35.849-2.99" transform="translate(1.04 395.744)" fill="none" stroke="#959595" stroke-miterlimit="10" stroke-width="2"/>
        <path id="패스_508" data-name="패스 508" d="M21.255-385.328a65.613,65.613,0,0,1,21.633-8.74c16.411-3.589,31.633-1.217,39,5.23" transform="translate(1.04 395.744)" fill="none" stroke="#959595" stroke-miterlimit="10" stroke-width="2"/>
        <path id="패스_509" data-name="패스 509" d="M101.2-351.256A22.069,22.069,0,0,1,79.13-373.325,22.068,22.068,0,0,1,101.2-395.394Z" transform="translate(1.04 395.744)" fill="none" stroke="#959595" stroke-miterlimit="10" stroke-width="2"/>
        <path id="패스_510" data-name="패스 510" d="M-1.04-395.394a22.069,22.069,0,0,1,22.069,22.069A22.069,22.069,0,0,1-1.04-351.256Z" transform="translate(1.04 395.744)" fill="none" stroke="#959595" stroke-miterlimit="10" stroke-width="2"/>
      </g>
    </g>
    <text id="약하게" transform="translate(751 540)" fill="#959595" font-size="16" font-family="Pretendard-SemiBold, Pretendard" font-weight="600"><tspan x="-20.742" y="0">약하게</tspan></text>
  </g>
</svg>
