<svg id="img_ironing4_ac" xmlns="http://www.w3.org/2000/svg" width="150" height="150" viewBox="0 0 150 150">
  <g id="그룹_3532" data-name="그룹 3532" transform="translate(-676 -459)">
    <rect id="사각형_694" data-name="사각형 694" width="150" height="150" transform="translate(676 459)" fill="none"/>
    <g id="그룹_3557" data-name="그룹 3557" transform="translate(576.393 902.818)">
      <path id="패스_502" data-name="패스 502" d="M159.6-413.95h47.548a5.321,5.321,0,0,1,5.193,4.51l11.19,66.524a5.393,5.393,0,0,1-5.193,6.374H128.881a5.406,5.406,0,0,1-5.125-6.722c2.712-11.721,10.954-34.914,33.979-37.616l58.373-6.158" transform="translate(0)" fill="none" stroke="#f63" stroke-miterlimit="10" stroke-width="2"/>
      <g id="그룹_3556" data-name="그룹 3556" transform="translate(123.608 -329.686)">
        <path id="패스_503" data-name="패스 503" d="M123.608-344.128c8.332,0,8.332,6,16.665,6s8.33-6,16.661-6,8.333,6,16.667,6,8.33-6,16.661-6,8.337,6,16.673,6,8.337-6,16.674-6" transform="translate(-123.608 344.128)" fill="none" stroke="#f63" stroke-miterlimit="10" stroke-width="2"/>
      </g>
    </g>
    <text id="_140_160_" data-name="140~160℃" transform="translate(752 557)" fill="#f63" font-size="16" font-family="Montserrat-SemiBold, Montserrat" font-weight="600"><tspan x="-40.889" y="0">140~160</tspan><tspan y="0" font-family="Helvetica-Bold, Helvetica" font-weight="700">℃</tspan></text>
  </g>
</svg>
