<svg id="img_washHand_ac" xmlns="http://www.w3.org/2000/svg" width="150" height="150" viewBox="0 0 150 150">
  <g id="그룹_3532" data-name="그룹 3532" transform="translate(-676 -459)">
    <rect id="사각형_694" data-name="사각형 694" width="150" height="150" transform="translate(676 459)" fill="none"/>
    <text id="약_30_중성" data-name="약 30℃
중성" transform="translate(751 546)" fill="#f63" font-size="16" font-family="Pretendard-SemiBold, Pretendard" font-weight="600"><tspan x="-28.228" y="0">약 3</tspan><tspan y="0" font-family="Montserrat-SemiBold, Montserrat">0</tspan><tspan y="0" font-family="Helvetica-Bold, Helvetica" font-weight="700">℃</tspan><tspan y="0" font-family="Montserrat-SemiBold, Montserrat"></tspan><tspan font-family="AppleSDGothicNeo-SemiBold, Apple SD Gothic Neo"><tspan x="-13.84" y="21">중성</tspan></tspan></text>
    <text id="손세탁" transform="translate(751 502)" fill="#f63" font-size="16" font-family="Pretendard-SemiBold, Pretendard" font-weight="600"><tspan x="-20.742" y="0">손세탁</tspan></text>
    <g id="그룹_3563" data-name="그룹 3563" transform="translate(932.711 902.511)">
      <path id="패스_505" data-name="패스 505" d="M-139.984-418.511-152.779-323.2a4.686,4.686,0,0,1-4.686,4.685H-205.96a4.685,4.685,0,0,1-4.685-4.685l-12.795-95.315" fill="none" stroke="#f63" stroke-miterlimit="10" stroke-width="2"/>
      <g id="그룹_3562" data-name="그룹 3562" transform="translate(-219.785 -390.028)">
        <path id="패스_506" data-name="패스 506" d="M-219.785-394.279c6.342,0,6.342,6,12.684,6s6.344-6,12.688-6,6.346,6,12.692,6,6.343-6,12.688-6,6.348,6,12.7,6,6.349-6,12.7-6" transform="translate(219.785 394.279)" fill="none" stroke="#f63" stroke-miterlimit="10" stroke-width="2"/>
      </g>
    </g>
  </g>
</svg>
