<svg xmlns="http://www.w3.org/2000/svg" width="36" height="36" viewBox="0 0 36 36">
    <g data-name="그룹 3397">
        <path data-name="사각형 667" style="fill:none" d="M0 0h36v36H0z"/>
        <path data-name="패스 9" d="M10.625 0a.625.625 0 0 1 .625.625.625.625 0 0 0 .625.625.625.625 0 0 1 .625.625V2.5a.625.625 0 0 1-.625.625h-6.25A.625.625 0 0 1 5 2.5v-.625a.625.625 0 0 1 .625-.625.625.625 0 0 0 .625-.625A.625.625 0 0 1 6.875 0z" transform="translate(8.75 8)" style="fill:#f4f4f4"/>
        <path data-name="패스 10" d="M3.25 2.875a.625.625 0 0 1 .625-.625H4.5A.625.625 0 0 0 4.5 1h-.625A1.875 1.875 0 0 0 2 2.875v15a1.875 1.875 0 0 0 1.875 1.875h11.25A1.875 1.875 0 0 0 17 17.875v-15A1.875 1.875 0 0 0 15.125 1H14.5a.625.625 0 0 0 0 1.25h.625a.625.625 0 0 1 .625.625v15a.625.625 0 0 1-.625.625H3.875a.625.625 0 0 1-.625-.625z" transform="translate(8 8.25)" style="fill:#f4f4f4"/>
        <path data-name="패스 11" d="M9.25 6.625a.625.625 0 0 0-1.25 0V8.5H6.125a.625.625 0 0 0 0 1.25H8v1.875a.625.625 0 0 0 1.25 0V9.75h1.875a.625.625 0 0 0 0-1.25H9.25z" transform="translate(8.875 9.5)" style="fill:#f4f4f4"/>
    </g>
</svg>
