<svg xmlns="http://www.w3.org/2000/svg" width="36" height="36" viewBox="0 0 36 36">
    <g data-name="그룹 3397">
        <path data-name="사각형 667" style="fill:none" d="M0 0h36v36H0z"/>
        <g data-name="그룹 3398">
            <path data-name="패스 1" d="M8.627 7.5a.625.625 0 0 1 .625.625V10h1.876a.625.625 0 0 1 0 1.251H9.252v1.876a.625.625 0 0 1-1.251 0v-1.875H6.125a.625.625 0 1 1 0-1.251H8V8.125a.625.625 0 0 1 .627-.625z" transform="translate(9.123 9.873)" style="fill-rule:evenodd;fill:#f4f4f4"/>
            <path data-name="패스 2" d="M9.75 1.25a3.125 3.125 0 0 1 3.125 3.125V5h-6.25v-.625A3.125 3.125 0 0 1 9.75 1.25zM14.125 5v-.625a4.375 4.375 0 0 0-8.75 0V5H1v12.5A2.5 2.5 0 0 0 3.5 20H16a2.5 2.5 0 0 0 2.5-2.5V5zM2.25 6.25h15V17.5A1.25 1.25 0 0 1 16 18.75H3.5a1.25 1.25 0 0 1-1.25-1.25z" transform="translate(8 8)" style="fill:#f4f4f4"/>
        </g>
    </g>
</svg>
