<svg xmlns="http://www.w3.org/2000/svg" width="36" height="36" viewBox="0 0 36 36">
    <g data-name="그룹 3397">
        <path data-name="사각형 667" style="fill:none" d="M0 0h36v36H0z"/>
        <path data-name="패스 16" d="M8 4.754A3.246 3.246 0 1 0 11.246 8 3.246 3.246 0 0 0 8 4.754zM5.754 8A2.246 2.246 0 1 1 8 10.246 2.246 2.246 0 0 1 5.754 8z" transform="translate(10.001 10.001)" style="fill:#f4f4f4"/>
        <path data-name="패스 17" d="M12.246 1.679a2.341 2.341 0 0 0-4.49 0l-.118.4a1.091 1.091 0 0 1-1.569.65l-.365-.2A2.341 2.341 0 0 0 2.529 5.7l.2.365a1.091 1.091 0 0 1-.65 1.569l-.4.118a2.341 2.341 0 0 0 0 4.49l.4.118a1.091 1.091 0 0 1 .65 1.569l-.2.365A2.341 2.341 0 0 0 5.7 17.472l.365-.2a1.091 1.091 0 0 1 1.569.65l.118.4a2.341 2.341 0 0 0 4.49 0l.118-.4a1.091 1.091 0 0 1 1.569-.65l.365.2a2.341 2.341 0 0 0 3.178-3.172l-.2-.365a1.091 1.091 0 0 1 .65-1.569l.4-.118a2.341 2.341 0 0 0 0-4.49l-.4-.118a1.091 1.091 0 0 1-.65-1.569l.2-.365A2.341 2.341 0 0 0 14.3 2.529l-.365.2a1.091 1.091 0 0 1-1.569-.65l-.118-.4zm-3.291.354a1.091 1.091 0 0 1 2.093 0l.118.4a2.341 2.341 0 0 0 3.366 1.394l.364-.2a1.092 1.092 0 0 1 1.48 1.481l-.2.365a2.341 2.341 0 0 0 1.4 3.365l.4.118a1.091 1.091 0 0 1 0 2.093l-.4.118a2.341 2.341 0 0 0-1.394 3.366l.2.364a1.092 1.092 0 0 1-1.481 1.48l-.364-.2a2.341 2.341 0 0 0-3.366 1.4l-.118.4a1.091 1.091 0 0 1-2.093 0l-.118-.4a2.341 2.341 0 0 0-3.365-1.394l-.365.2a1.092 1.092 0 0 1-1.48-1.481l.2-.364a2.341 2.341 0 0 0-1.394-3.368l-.4-.118a1.091 1.091 0 0 1 0-2.093l.4-.118a2.341 2.341 0 0 0 1.387-3.37l-.2-.365a1.092 1.092 0 0 1 1.481-1.48l.365.2a2.341 2.341 0 0 0 3.366-1.395z" transform="translate(8 8)" style="fill:#f4f4f4"/>
    </g>
</svg>
