<svg xmlns="http://www.w3.org/2000/svg" width="36" height="36" viewBox="0 0 36 36">
    <g data-name="그룹 3397">
        <path data-name="사각형 667" style="fill:none" d="M0 0h36v36H0z"/>
        <path d="M1 3.143A2.143 2.143 0 0 1 3.143 1h4.286a2.143 2.143 0 0 1 2.142 2.143v4.286a2.143 2.143 0 0 1-2.142 2.142H3.143A2.143 2.143 0 0 1 1 7.429zm2.143-.714a.714.714 0 0 0-.714.714v4.286a.714.714 0 0 0 .714.714h4.286a.714.714 0 0 0 .714-.714V3.143a.714.714 0 0 0-.714-.714zm9.286.714A2.143 2.143 0 0 1 14.571 1h4.286A2.143 2.143 0 0 1 21 3.143v4.286a2.143 2.143 0 0 1-2.143 2.143h-4.286a2.143 2.143 0 0 1-2.143-2.143zm2.143-.714a.714.714 0 0 0-.714.714v4.286a.714.714 0 0 0 .714.714h4.286a.714.714 0 0 0 .714-.714V3.143a.714.714 0 0 0-.714-.714zM1 14.571a2.143 2.143 0 0 1 2.143-2.143h4.286a2.143 2.143 0 0 1 2.143 2.143v4.286A2.143 2.143 0 0 1 7.429 21H3.143A2.143 2.143 0 0 1 1 18.857zm2.143-.714a.714.714 0 0 0-.714.714v4.286a.714.714 0 0 0 .714.714h4.286a.714.714 0 0 0 .714-.714v-4.286a.714.714 0 0 0-.714-.714zm9.286.714a2.143 2.143 0 0 1 2.143-2.143h4.286A2.143 2.143 0 0 1 21 14.571v4.286A2.143 2.143 0 0 1 18.857 21h-4.286a2.143 2.143 0 0 1-2.143-2.143zm2.143-.714a.714.714 0 0 0-.714.714v4.286a.714.714 0 0 0 .714.714h4.286a.714.714 0 0 0 .714-.714v-4.286a.714.714 0 0 0-.714-.714z" transform="translate(6.877 7)" style="fill:#f4f4f4"/>
    </g>
</svg>
