<svg xmlns="http://www.w3.org/2000/svg" width="36" height="36" viewBox="0 0 36 36">
    <g data-name="그룹 3397">
        <path data-name="사각형 667" style="fill:none" d="M0 0h36v36H0z"/>
        <path d="M11.291 1.209a.714.714 0 0 0-1.011 0L1.709 9.78a.714.714 0 0 0-.209.506v10a.714.714 0 0 0 .714.714h6.428a.714.714 0 0 0 .714-.714v-5.715h2.857v5.714a.714.714 0 0 0 .714.714h6.428a.714.714 0 0 0 .714-.714v-10a.714.714 0 0 0-.209-.506l-1.932-1.932v-4.7a.714.714 0 0 0-.714-.714h-1.429a.714.714 0 0 0-.714.714V4.99zM2.928 19.571v-8.99l7.857-7.857 7.857 7.857v8.989h-5v-5.713a.714.714 0 0 0-.714-.714H8.642a.714.714 0 0 0-.714.714v5.714z" transform="translate(7.215 7.001)" style="fill:#f4f4f4"/>
    </g>
</svg>
